<svg width="351" height="322" viewBox="0 0 351 322" fill="none" xmlns="http://www.w3.org/2000/svg">
<g id="heart_segments">
<path id="Red" d="M266.5 1.49999C234.1 -2.50001 192 18.1667 175 29C101 -7 79.9 0.7 55.5 7.5C31.1 14.3 14.6667 39 9.5 50.5H175H339C324 24 307 6.49999 266.5 1.49999Z" stroke="black" stroke-linecap="round" stroke-linejoin="round"/>
<path id="orange" d="M9.99999 50.5C1.5 66.5 0.166658 95.1667 1.49999 104.5H349.5C349.5 73.3 342.5 55.5 339 50.5H9.99999Z" stroke="black" stroke-linecap="round" stroke-linejoin="round"/>
<path id="yellow" d="M11.5 160C34.5 160 316.5 160 337 160C350 126.5 350 105 350 105C327 105 36 105 1.99999 105C1.99999 102.5 1.99999 139.5 11.5 160Z" stroke="black" stroke-linecap="round" stroke-linejoin="round"/>
<path id="green" d="M306 215.5H42.5C22 189 15.3333 172 11.5 159L338 159C338 159 325.5 189.5 306 215.5Z" stroke="black" stroke-linecap="round" stroke-linejoin="round"/>
<path id="blue" d="M306.5 214.5H41.5C60 239 82.8333 260.333 94.5 269.5H254.5C266.1 262.3 294.167 229 306.5 214.5Z" stroke="black" stroke-linecap="round" stroke-linejoin="round"/>
<path id="purple" d="M255 269C240.6 284.6 195.167 310.167 175 321C132.6 301 102.5 278 93.5 269H255Z" stroke="black" stroke-linecap="round" stroke-linejoin="round"/>
</g>
</svg>
